<svg width="44" height="39" viewBox="0 0 44 39" fill="none" xmlns="http://www.w3.org/2000/svg">
<path d="M27.5 1.625H16.5V4.875H27.5V1.625ZM20.1667 22.75H23.8333V13H20.1667V22.75ZM34.8883 12.0088L37.4917 9.70125C36.7033 8.8725 35.8417 8.0925 34.9067 7.41L32.3033 9.7175C29.4617 7.7025 25.8867 6.5 22 6.5C12.8883 6.5 5.5 13.0488 5.5 21.125C5.5 29.2013 12.87 35.75 22 35.75C31.13 35.75 38.5 29.2013 38.5 21.125C38.5 17.68 37.1433 14.5113 34.8883 12.0088ZM22 32.5C14.905 32.5 9.16667 27.4138 9.16667 21.125C9.16667 14.8363 14.905 9.75 22 9.75C29.095 9.75 34.8333 14.8363 34.8333 21.125C34.8333 27.4138 29.095 32.5 22 32.5Z" fill="#1317DD"/>
</svg>
